M48
; DRILL file {KiCad (6.0.1)} date Thu Jul 28 18:23:26 2022
; FORMAT={-:-/ absolute / inch / decimal}
; #@! TF.CreationDate,2022-07-28T18:23:26-07:00
; #@! TF.GenerationSoftware,Kicad,Pcbnew,(6.0.1)
; #@! TF.FileFunction,Plated,1,2,PTH
FMAT,2
INCH
; #@! TA.AperFunction,Plated,PTH,ComponentDrill
T1C0.0400
%
G90
G05
T1
X3.5665Y-3.454
X3.5665Y-3.554
X3.5665Y-3.654
X3.5665Y-3.754
X3.5665Y-3.854
X3.5665Y-3.954
X3.5665Y-4.054
X3.5665Y-4.154
X3.5665Y-4.254
X3.5665Y-4.354
X3.5665Y-4.454
X3.5665Y-4.554
X3.6665Y-3.454
X3.6665Y-3.554
X3.6665Y-3.654
X3.6665Y-3.754
X3.6665Y-3.854
X3.6665Y-3.954
X3.6665Y-4.054
X3.6665Y-4.154
X3.6665Y-4.254
X3.6665Y-4.354
X3.6665Y-4.454
X3.6665Y-4.554
X4.1016Y-2.844
X4.1016Y-2.944
X4.1016Y-3.044
X4.1016Y-3.144
X4.1016Y-3.244
X4.1016Y-3.344
X4.1016Y-3.444
X4.1016Y-3.544
X4.1016Y-3.644
X4.1016Y-3.744
X4.1016Y-3.844
X4.1016Y-3.944
X4.1016Y-4.044
X4.1016Y-4.144
X4.1016Y-4.244
X4.1016Y-4.344
X4.1016Y-4.444
X4.1016Y-4.544
X4.1016Y-4.644
X4.1016Y-4.744
X4.1016Y-4.844
X4.1016Y-4.944
X4.1016Y-5.044
X4.1016Y-5.144
X4.7016Y-2.844
X4.7016Y-2.944
X4.7016Y-3.044
X4.7016Y-3.144
X4.7016Y-3.244
X4.7016Y-3.344
X4.7016Y-3.444
X4.7016Y-3.544
X4.7016Y-3.644
X4.7016Y-3.744
X4.7016Y-3.844
X4.7016Y-3.944
X4.7016Y-4.044
X4.7016Y-4.144
X4.7016Y-4.244
X4.7016Y-4.344
X4.7016Y-4.444
X4.7016Y-4.544
X4.7016Y-4.644
X4.7016Y-4.744
X4.7016Y-4.844
X4.7016Y-4.944
X4.7016Y-5.044
X4.7016Y-5.144
X5.1465Y-3.454
X5.1465Y-3.554
X5.1465Y-3.654
X5.1465Y-3.754
X5.1465Y-3.854
X5.1465Y-3.954
X5.1465Y-4.054
X5.1465Y-4.154
X5.1465Y-4.254
X5.1465Y-4.354
X5.1465Y-4.454
X5.1465Y-4.554
X5.2465Y-3.454
X5.2465Y-3.554
X5.2465Y-3.654
X5.2465Y-3.754
X5.2465Y-3.854
X5.2465Y-3.954
X5.2465Y-4.054
X5.2465Y-4.154
X5.2465Y-4.254
X5.2465Y-4.354
X5.2465Y-4.454
X5.2465Y-4.554
T0
M30
