%TF.GenerationSoftware,KiCad,Pcbnew,(6.0.1)*%
%TF.CreationDate,2022-07-28T18:23:26-07:00*%
%TF.ProjectId,2x2x12-idc-to-dip48,32783278-3132-42d6-9964-632d746f2d64,rev?*%
%TF.SameCoordinates,Original*%
%TF.FileFunction,Legend,Bot*%
%TF.FilePolarity,Positive*%
%FSLAX46Y46*%
G04 Gerber Fmt 4.6, Leading zero omitted, Abs format (unit mm)*
G04 Created by KiCad (PCBNEW (6.0.1)) date 2022-07-28 18:23:26*
%MOMM*%
%LPD*%
G01*
G04 APERTURE LIST*
%ADD10C,0.152400*%
%ADD11O,1.778000X1.524000*%
G04 APERTURE END LIST*
D10*
%TO.C,P1*%
X118108000Y-71222700D02*
X120818000Y-71222700D01*
X120818000Y-71222700D02*
X120818000Y-131801700D01*
X120818000Y-131801700D02*
X118108000Y-131801700D01*
X118108000Y-131801700D02*
X118108000Y-71222700D01*
X102848000Y-131801700D02*
X105578000Y-131801700D01*
X105578000Y-131801700D02*
X105578000Y-71222700D01*
X105578000Y-71222700D02*
X102848000Y-71222700D01*
X102848000Y-71222700D02*
X102848000Y-131801700D01*
%TD*%
%LPC*%
D11*
%TO.C,P2*%
X90589100Y-87731600D03*
X93129100Y-87731600D03*
X90589100Y-90271600D03*
X93129100Y-90271600D03*
X90589100Y-92811600D03*
X93129100Y-92811600D03*
X90589100Y-95351600D03*
X93129100Y-95351600D03*
X90589100Y-97891600D03*
X93129100Y-97891600D03*
X90589100Y-100431600D03*
X93129100Y-100431600D03*
X90589100Y-102971600D03*
X93129100Y-102971600D03*
X90589100Y-105511600D03*
X93129100Y-105511600D03*
X90589100Y-108051600D03*
X93129100Y-108051600D03*
X90589100Y-110591600D03*
X93129100Y-110591600D03*
X90589100Y-113131600D03*
X93129100Y-113131600D03*
X90589100Y-115671600D03*
X93129100Y-115671600D03*
%TD*%
%TO.C,P3*%
X133261100Y-115671600D03*
X130721100Y-115671600D03*
X133261100Y-113131600D03*
X130721100Y-113131600D03*
X133261100Y-110591600D03*
X130721100Y-110591600D03*
X133261100Y-108051600D03*
X130721100Y-108051600D03*
X133261100Y-105511600D03*
X130721100Y-105511600D03*
X133261100Y-102971600D03*
X130721100Y-102971600D03*
X133261100Y-100431600D03*
X130721100Y-100431600D03*
X133261100Y-97891600D03*
X130721100Y-97891600D03*
X133261100Y-95351600D03*
X130721100Y-95351600D03*
X133261100Y-92811600D03*
X130721100Y-92811600D03*
X133261100Y-90271600D03*
X130721100Y-90271600D03*
X133261100Y-87731600D03*
X130721100Y-87731600D03*
%TD*%
%TO.C,P1*%
X104181000Y-72238700D03*
X104181000Y-74778700D03*
X104181000Y-77318700D03*
X104181000Y-79858700D03*
X104181000Y-82398700D03*
X104181000Y-84938700D03*
X104181000Y-87478700D03*
X104181000Y-90018700D03*
X104181000Y-92558700D03*
X104181000Y-95098700D03*
X104181000Y-97638700D03*
X104181000Y-100178700D03*
X104181000Y-102718700D03*
X104181000Y-105258700D03*
X104181000Y-107798700D03*
X104181000Y-110338700D03*
X104181000Y-112878700D03*
X104181000Y-115418700D03*
X104181000Y-117958700D03*
X104181000Y-120498700D03*
X104181000Y-123038700D03*
X104181000Y-125578700D03*
X104181000Y-128118700D03*
X104181000Y-130658700D03*
X119421000Y-130658700D03*
X119421000Y-128118700D03*
X119421000Y-125578700D03*
X119421000Y-123038700D03*
X119421000Y-120498700D03*
X119421000Y-117958700D03*
X119421000Y-115418700D03*
X119421000Y-112878700D03*
X119421000Y-110338700D03*
X119421000Y-107798700D03*
X119421000Y-105258700D03*
X119421000Y-102718700D03*
X119421000Y-100178700D03*
X119421000Y-97638700D03*
X119421000Y-95098700D03*
X119421000Y-92558700D03*
X119421000Y-90018700D03*
X119421000Y-87478700D03*
X119421000Y-84938700D03*
X119421000Y-82398700D03*
X119421000Y-79858700D03*
X119421000Y-77318700D03*
X119421000Y-74778700D03*
X119421000Y-72238700D03*
%TD*%
M02*
