%TF.GenerationSoftware,KiCad,Pcbnew,(6.0.1)*%
%TF.CreationDate,2022-07-28T18:23:26-07:00*%
%TF.ProjectId,2x2x12-idc-to-dip48,32783278-3132-42d6-9964-632d746f2d64,rev?*%
%TF.SameCoordinates,Original*%
%TF.FileFunction,Copper,L2,Bot*%
%TF.FilePolarity,Positive*%
%FSLAX46Y46*%
G04 Gerber Fmt 4.6, Leading zero omitted, Abs format (unit mm)*
G04 Created by KiCad (PCBNEW (6.0.1)) date 2022-07-28 18:23:26*
%MOMM*%
%LPD*%
G01*
G04 APERTURE LIST*
%TA.AperFunction,ComponentPad*%
%ADD10O,1.778000X1.524000*%
%TD*%
%TA.AperFunction,Conductor*%
%ADD11C,0.300000*%
%TD*%
%TA.AperFunction,Conductor*%
%ADD12C,0.400000*%
%TD*%
%TA.AperFunction,Conductor*%
%ADD13C,0.250000*%
%TD*%
G04 APERTURE END LIST*
D10*
%TO.P,P2,1,Pin_1*%
%TO.N,/TSOP_1*%
X90589100Y-87731600D03*
%TO.P,P2,2,Pin_2*%
%TO.N,/TSOP_2*%
X93129100Y-87731600D03*
%TO.P,P2,3,Pin_3*%
%TO.N,/TSOP_3*%
X90589100Y-90271600D03*
%TO.P,P2,4,Pin_4*%
%TO.N,/TSOP_4*%
X93129100Y-90271600D03*
%TO.P,P2,5,Pin_5*%
%TO.N,/TSOP_5*%
X90589100Y-92811600D03*
%TO.P,P2,6,Pin_6*%
%TO.N,/TSOP_6*%
X93129100Y-92811600D03*
%TO.P,P2,7,Pin_7*%
%TO.N,/TSOP_7*%
X90589100Y-95351600D03*
%TO.P,P2,8,Pin_8*%
%TO.N,/TSOP_8*%
X93129100Y-95351600D03*
%TO.P,P2,9,Pin_9*%
%TO.N,/TSOP_9*%
X90589100Y-97891600D03*
%TO.P,P2,10,Pin_10*%
%TO.N,/TSOP_10*%
X93129100Y-97891600D03*
%TO.P,P2,11,Pin_11*%
%TO.N,/TSOP_11*%
X90589100Y-100431600D03*
%TO.P,P2,12,Pin_12*%
%TO.N,/TSOP_12*%
X93129100Y-100431600D03*
%TO.P,P2,13,Pin_13*%
%TO.N,/TSOP_13*%
X90589100Y-102971600D03*
%TO.P,P2,14,Pin_14*%
%TO.N,/TSOP_14*%
X93129100Y-102971600D03*
%TO.P,P2,15,Pin_15*%
%TO.N,/TSOP_15*%
X90589100Y-105511600D03*
%TO.P,P2,16,Pin_16*%
%TO.N,/TSOP_16*%
X93129100Y-105511600D03*
%TO.P,P2,17,Pin_17*%
%TO.N,/TSOP_17*%
X90589100Y-108051600D03*
%TO.P,P2,18,Pin_18*%
%TO.N,/TSOP_18*%
X93129100Y-108051600D03*
%TO.P,P2,19,Pin_19*%
%TO.N,/TSOP_19*%
X90589100Y-110591600D03*
%TO.P,P2,20,Pin_20*%
%TO.N,/TSOP_20*%
X93129100Y-110591600D03*
%TO.P,P2,21,Pin_21*%
%TO.N,/TSOP_21*%
X90589100Y-113131600D03*
%TO.P,P2,22,Pin_22*%
%TO.N,/TSOP_22*%
X93129100Y-113131600D03*
%TO.P,P2,23,Pin_23*%
%TO.N,/TSOP_23*%
X90589100Y-115671600D03*
%TO.P,P2,24,Pin_24*%
%TO.N,/TSOP_24*%
X93129100Y-115671600D03*
%TD*%
%TO.P,P3,1,Pin_1*%
%TO.N,/TSOP_25*%
X133261100Y-115671600D03*
%TO.P,P3,2,Pin_2*%
%TO.N,/TSOP_26*%
X130721100Y-115671600D03*
%TO.P,P3,3,Pin_3*%
%TO.N,/TSOP_27*%
X133261100Y-113131600D03*
%TO.P,P3,4,Pin_4*%
%TO.N,/TSOP_28*%
X130721100Y-113131600D03*
%TO.P,P3,5,Pin_5*%
%TO.N,/TSOP_29*%
X133261100Y-110591600D03*
%TO.P,P3,6,Pin_6*%
%TO.N,/TSOP_30*%
X130721100Y-110591600D03*
%TO.P,P3,7,Pin_7*%
%TO.N,/TSOP_31*%
X133261100Y-108051600D03*
%TO.P,P3,8,Pin_8*%
%TO.N,/TSOP_32*%
X130721100Y-108051600D03*
%TO.P,P3,9,Pin_9*%
%TO.N,/TSOP_33*%
X133261100Y-105511600D03*
%TO.P,P3,10,Pin_10*%
%TO.N,/TSOP_34*%
X130721100Y-105511600D03*
%TO.P,P3,11,Pin_11*%
%TO.N,/TSOP_35*%
X133261100Y-102971600D03*
%TO.P,P3,12,Pin_12*%
%TO.N,/TSOP_36*%
X130721100Y-102971600D03*
%TO.P,P3,13,Pin_13*%
%TO.N,/TSOP_37*%
X133261100Y-100431600D03*
%TO.P,P3,14,Pin_14*%
%TO.N,/TSOP_38*%
X130721100Y-100431600D03*
%TO.P,P3,15,Pin_15*%
%TO.N,/TSOP_39*%
X133261100Y-97891600D03*
%TO.P,P3,16,Pin_16*%
%TO.N,/TSOP_40*%
X130721100Y-97891600D03*
%TO.P,P3,17,Pin_17*%
%TO.N,/TSOP_41*%
X133261100Y-95351600D03*
%TO.P,P3,18,Pin_18*%
%TO.N,/TSOP_42*%
X130721100Y-95351600D03*
%TO.P,P3,19,Pin_19*%
%TO.N,/TSOP_43*%
X133261100Y-92811600D03*
%TO.P,P3,20,Pin_20*%
%TO.N,/TSOP_44*%
X130721100Y-92811600D03*
%TO.P,P3,21,Pin_21*%
%TO.N,/TSOP_45*%
X133261100Y-90271600D03*
%TO.P,P3,22,Pin_22*%
%TO.N,/TSOP_46*%
X130721100Y-90271600D03*
%TO.P,P3,23,Pin_23*%
%TO.N,/TSOP_47*%
X133261100Y-87731600D03*
%TO.P,P3,24,Pin_24*%
%TO.N,/TSOP_48*%
X130721100Y-87731600D03*
%TD*%
%TO.P,P1,1,Pin_1*%
%TO.N,/TSOP_1*%
X104181000Y-72238700D03*
%TO.P,P1,2,Pin_2*%
%TO.N,/TSOP_2*%
X104181000Y-74778700D03*
%TO.P,P1,3,Pin_3*%
%TO.N,/TSOP_3*%
X104181000Y-77318700D03*
%TO.P,P1,4,Pin_4*%
%TO.N,/TSOP_4*%
X104181000Y-79858700D03*
%TO.P,P1,5,Pin_5*%
%TO.N,/TSOP_5*%
X104181000Y-82398700D03*
%TO.P,P1,6,Pin_6*%
%TO.N,/TSOP_6*%
X104181000Y-84938700D03*
%TO.P,P1,7,Pin_7*%
%TO.N,/TSOP_7*%
X104181000Y-87478700D03*
%TO.P,P1,8,Pin_8*%
%TO.N,/TSOP_8*%
X104181000Y-90018700D03*
%TO.P,P1,9,Pin_9*%
%TO.N,/TSOP_9*%
X104181000Y-92558700D03*
%TO.P,P1,10,Pin_10*%
%TO.N,/TSOP_10*%
X104181000Y-95098700D03*
%TO.P,P1,11,Pin_11*%
%TO.N,/TSOP_11*%
X104181000Y-97638700D03*
%TO.P,P1,12,Pin_12*%
%TO.N,/TSOP_12*%
X104181000Y-100178700D03*
%TO.P,P1,13,Pin_13*%
%TO.N,/TSOP_13*%
X104181000Y-102718700D03*
%TO.P,P1,14,Pin_14*%
%TO.N,/TSOP_14*%
X104181000Y-105258700D03*
%TO.P,P1,15,Pin_15*%
%TO.N,/TSOP_15*%
X104181000Y-107798700D03*
%TO.P,P1,16,Pin_16*%
%TO.N,/TSOP_16*%
X104181000Y-110338700D03*
%TO.P,P1,17,Pin_17*%
%TO.N,/TSOP_17*%
X104181000Y-112878700D03*
%TO.P,P1,18,Pin_18*%
%TO.N,/TSOP_18*%
X104181000Y-115418700D03*
%TO.P,P1,19,Pin_19*%
%TO.N,/TSOP_19*%
X104181000Y-117958700D03*
%TO.P,P1,20,Pin_20*%
%TO.N,/TSOP_20*%
X104181000Y-120498700D03*
%TO.P,P1,21,Pin_21*%
%TO.N,/TSOP_21*%
X104181000Y-123038700D03*
%TO.P,P1,22,Pin_22*%
%TO.N,/TSOP_22*%
X104181000Y-125578700D03*
%TO.P,P1,23,Pin_23*%
%TO.N,/TSOP_23*%
X104181000Y-128118700D03*
%TO.P,P1,24,Pin_24*%
%TO.N,/TSOP_24*%
X104181000Y-130658700D03*
%TO.P,P1,25,Pin_25*%
%TO.N,/TSOP_25*%
X119421000Y-130658700D03*
%TO.P,P1,26,Pin_26*%
%TO.N,/TSOP_26*%
X119421000Y-128118700D03*
%TO.P,P1,27,Pin_27*%
%TO.N,/TSOP_27*%
X119421000Y-125578700D03*
%TO.P,P1,28,Pin_28*%
%TO.N,/TSOP_28*%
X119421000Y-123038700D03*
%TO.P,P1,29,Pin_29*%
%TO.N,/TSOP_29*%
X119421000Y-120498700D03*
%TO.P,P1,30,Pin_30*%
%TO.N,/TSOP_30*%
X119421000Y-117958700D03*
%TO.P,P1,31,Pin_31*%
%TO.N,/TSOP_31*%
X119421000Y-115418700D03*
%TO.P,P1,32,Pin_32*%
%TO.N,/TSOP_32*%
X119421000Y-112878700D03*
%TO.P,P1,33,Pin_33*%
%TO.N,/TSOP_33*%
X119421000Y-110338700D03*
%TO.P,P1,34,Pin_34*%
%TO.N,/TSOP_34*%
X119421000Y-107798700D03*
%TO.P,P1,35,Pin_35*%
%TO.N,/TSOP_35*%
X119421000Y-105258700D03*
%TO.P,P1,36,Pin_36*%
%TO.N,/TSOP_36*%
X119421000Y-102718700D03*
%TO.P,P1,37,Pin_37*%
%TO.N,/TSOP_37*%
X119421000Y-100178700D03*
%TO.P,P1,38,Pin_38*%
%TO.N,/TSOP_38*%
X119421000Y-97638700D03*
%TO.P,P1,39,Pin_39*%
%TO.N,/TSOP_39*%
X119421000Y-95098700D03*
%TO.P,P1,40,Pin_40*%
%TO.N,/TSOP_40*%
X119421000Y-92558700D03*
%TO.P,P1,41,Pin_41*%
%TO.N,/TSOP_41*%
X119421000Y-90018700D03*
%TO.P,P1,42,Pin_42*%
%TO.N,/TSOP_42*%
X119421000Y-87478700D03*
%TO.P,P1,43,Pin_43*%
%TO.N,/TSOP_43*%
X119421000Y-84938700D03*
%TO.P,P1,44,Pin_44*%
%TO.N,/TSOP_44*%
X119421000Y-82398700D03*
%TO.P,P1,45,Pin_45*%
%TO.N,/TSOP_45*%
X119421000Y-79858700D03*
%TO.P,P1,46,Pin_46*%
%TO.N,/TSOP_46*%
X119421000Y-77318700D03*
%TO.P,P1,47,Pin_47*%
%TO.N,/TSOP_47*%
X119421000Y-74778700D03*
%TO.P,P1,48,Pin_48*%
%TO.N,/TSOP_48*%
X119421000Y-72238700D03*
%TD*%
D11*
%TO.N,/TSOP_48*%
X130721100Y-87731600D02*
X130721100Y-82723600D01*
X130721100Y-82723600D02*
X120236200Y-72238700D01*
X120236200Y-72238700D02*
X119421000Y-72238700D01*
%TO.N,/TSOP_46*%
X123651100Y-81203600D02*
X119766200Y-77318700D01*
X123651100Y-83201600D02*
X123651100Y-81203600D01*
X119766200Y-77318700D02*
X119421000Y-77318700D01*
X130721100Y-90271600D02*
X123651100Y-83201600D01*
%TO.N,/TSOP_45*%
X119956200Y-79858700D02*
X119421000Y-79858700D01*
X121851100Y-81753600D02*
X119956200Y-79858700D01*
X129751100Y-91553600D02*
X121851100Y-83653600D01*
X131979100Y-91553600D02*
X129751100Y-91553600D01*
X133261100Y-90271600D02*
X131979100Y-91553600D01*
X121851100Y-83653600D02*
X121851100Y-81753600D01*
%TO.N,/TSOP_44*%
X119421000Y-82725800D02*
X119421000Y-82398700D01*
X129506800Y-92811600D02*
X119421000Y-82725800D01*
X130721100Y-92811600D02*
X129506800Y-92811600D01*
%TO.N,/TSOP_43*%
X128535900Y-94053600D02*
X119421000Y-84938700D01*
X132019100Y-94053600D02*
X128535900Y-94053600D01*
X133261100Y-92811600D02*
X132019100Y-94053600D01*
%TO.N,/TSOP_42*%
X127370700Y-95351600D02*
X119497800Y-87478700D01*
X130721100Y-95351600D02*
X127370700Y-95351600D01*
X119497800Y-87478700D02*
X119421000Y-87478700D01*
%TO.N,/TSOP_41*%
X133261100Y-95351600D02*
X132009100Y-96603600D01*
X126005900Y-96603600D02*
X119421000Y-90018700D01*
X132009100Y-96603600D02*
X126005900Y-96603600D01*
%TO.N,/TSOP_40*%
X119497800Y-92558700D02*
X119421000Y-92558700D01*
X124830700Y-97891600D02*
X119497800Y-92558700D01*
X130721100Y-97891600D02*
X124830700Y-97891600D01*
%TO.N,/TSOP_39*%
X123212400Y-99153600D02*
X119421000Y-95362200D01*
X133261100Y-97891600D02*
X131999100Y-99153600D01*
X119421000Y-95362200D02*
X119421000Y-95098700D01*
X131999100Y-99153600D02*
X123212400Y-99153600D01*
%TO.N,/TSOP_38*%
X122290700Y-100431600D02*
X119497800Y-97638700D01*
X130721100Y-100431600D02*
X122290700Y-100431600D01*
X119497800Y-97638700D02*
X119421000Y-97638700D01*
%TO.N,/TSOP_37*%
X131989100Y-101703600D02*
X121151100Y-101703600D01*
X119626200Y-100178700D02*
X119421000Y-100178700D01*
X121151100Y-101703600D02*
X119626200Y-100178700D01*
X133261100Y-100431600D02*
X131989100Y-101703600D01*
D12*
%TO.N,/TSOP_36*%
X119605900Y-102903600D02*
X119421000Y-102718700D01*
D13*
X130721100Y-102971600D02*
X130468200Y-102718700D01*
D12*
X130283300Y-102903600D02*
X119605900Y-102903600D01*
X130468200Y-102718700D02*
X130283300Y-102903600D01*
D11*
%TO.N,/TSOP_35*%
X120426100Y-104253600D02*
X119421000Y-105258700D01*
X131979100Y-104253600D02*
X120426100Y-104253600D01*
D13*
X133261100Y-102971600D02*
X131979100Y-104253600D01*
D11*
%TO.N,/TSOP_34*%
X130721100Y-105511600D02*
X128434000Y-107798700D01*
X128434000Y-107798700D02*
X119421000Y-107798700D01*
%TO.N,/TSOP_32*%
X123160800Y-109138900D02*
X119421000Y-112878700D01*
X129633800Y-109138900D02*
X123160800Y-109138900D01*
X130721100Y-108051600D02*
X129633800Y-109138900D01*
%TO.N,/TSOP_30*%
X130721100Y-110591600D02*
X129633800Y-111678900D01*
X125700800Y-111678900D02*
X119421000Y-117958700D01*
X129633800Y-111678900D02*
X125700800Y-111678900D01*
%TO.N,/TSOP_28*%
X129328100Y-113131600D02*
X119421000Y-123038700D01*
X130721100Y-113131600D02*
X129328100Y-113131600D01*
%TO.N,/TSOP_26*%
X130721100Y-116818600D02*
X119421000Y-128118700D01*
X130721100Y-115671600D02*
X130721100Y-116818600D01*
%TO.N,/TSOP_25*%
X119421000Y-130599000D02*
X119421000Y-130658700D01*
X133261100Y-116758900D02*
X119421000Y-130599000D01*
X133261100Y-115671600D02*
X133261100Y-116758900D01*
%TO.N,/TSOP_24*%
X93129100Y-120031600D02*
X103756200Y-130658700D01*
X103756200Y-130658700D02*
X104181000Y-130658700D01*
X93129100Y-115671600D02*
X93129100Y-120031600D01*
%TO.N,/TSOP_22*%
X97601100Y-117603600D02*
X97601100Y-120053600D01*
X93129100Y-113131600D02*
X97601100Y-117603600D01*
X97601100Y-120053600D02*
X103126200Y-125578700D01*
X103126200Y-125578700D02*
X104181000Y-125578700D01*
%TO.N,/TSOP_21*%
X100401100Y-119258800D02*
X104181000Y-123038700D01*
X94951100Y-111853600D02*
X100401100Y-117303600D01*
X100401100Y-117303600D02*
X100401100Y-119258800D01*
X91867100Y-111853600D02*
X94951100Y-111853600D01*
X90589100Y-113131600D02*
X91867100Y-111853600D01*
%TO.N,/TSOP_19*%
X95449100Y-109303600D02*
X104104200Y-117958700D01*
X104104200Y-117958700D02*
X104181000Y-117958700D01*
X90589100Y-110591600D02*
X91877100Y-109303600D01*
X91877100Y-109303600D02*
X95449100Y-109303600D01*
%TO.N,/TSOP_18*%
X104104200Y-115418700D02*
X104181000Y-115418700D01*
X96737100Y-108051600D02*
X104104200Y-115418700D01*
X93129100Y-108051600D02*
X96737100Y-108051600D01*
%TO.N,/TSOP_17*%
X98029100Y-106803600D02*
X104104200Y-112878700D01*
X104104200Y-112878700D02*
X104181000Y-112878700D01*
X91837100Y-106803600D02*
X98029100Y-106803600D01*
X90589100Y-108051600D02*
X91837100Y-106803600D01*
%TO.N,/TSOP_16*%
X104104200Y-110338700D02*
X104181000Y-110338700D01*
X93129100Y-105511600D02*
X99277100Y-105511600D01*
X99277100Y-105511600D02*
X104104200Y-110338700D01*
%TO.N,/TSOP_15*%
X90589100Y-105511600D02*
X91847100Y-104253600D01*
X100635900Y-104253600D02*
X104181000Y-107798700D01*
X91847100Y-104253600D02*
X100635900Y-104253600D01*
%TO.N,/TSOP_14*%
X103756200Y-105258700D02*
X104181000Y-105258700D01*
X93129100Y-102971600D02*
X101469100Y-102971600D01*
X101469100Y-102971600D02*
X103756200Y-105258700D01*
D12*
%TO.N,/TSOP_13*%
X91801100Y-101703600D02*
X90589100Y-102915600D01*
X90589100Y-102915600D02*
X90589100Y-102971600D01*
X104181000Y-102718700D02*
X103716200Y-102718700D01*
X103716200Y-102718700D02*
X102701100Y-101703600D01*
X102701100Y-101703600D02*
X91801100Y-101703600D01*
D11*
%TO.N,/TSOP_12*%
X93129100Y-100431600D02*
X103928100Y-100431600D01*
X103928100Y-100431600D02*
X104181000Y-100178700D01*
%TO.N,/TSOP_11*%
X91817100Y-99203600D02*
X102616100Y-99203600D01*
X90589100Y-100431600D02*
X91817100Y-99203600D01*
X102616100Y-99203600D02*
X104181000Y-97638700D01*
%TO.N,/TSOP_10*%
X93129100Y-97891600D02*
X100913100Y-97891600D01*
X100913100Y-97891600D02*
X103706000Y-95098700D01*
X103706000Y-95098700D02*
X104181000Y-95098700D01*
%TO.N,/TSOP_8*%
X98848100Y-95351600D02*
X104181000Y-90018700D01*
X93129100Y-95351600D02*
X98848100Y-95351600D01*
%TO.N,/TSOP_7*%
X90589100Y-95351600D02*
X91837100Y-94103600D01*
X97556100Y-94103600D02*
X104181000Y-87478700D01*
X91837100Y-94103600D02*
X97556100Y-94103600D01*
%TO.N,/TSOP_5*%
X95026100Y-91553600D02*
X104181000Y-82398700D01*
X90589100Y-92811600D02*
X91847100Y-91553600D01*
X91847100Y-91553600D02*
X95026100Y-91553600D01*
%TO.N,/TSOP_3*%
X91857100Y-89003600D02*
X94701100Y-89003600D01*
X90589100Y-90271600D02*
X91857100Y-89003600D01*
X98201100Y-85503600D02*
X98201100Y-82903600D01*
X98201100Y-82903600D02*
X103786000Y-77318700D01*
X103786000Y-77318700D02*
X104181000Y-77318700D01*
X94701100Y-89003600D02*
X98201100Y-85503600D01*
%TO.N,/TSOP_1*%
X104181000Y-72238700D02*
X102266000Y-72238700D01*
X102266000Y-72238700D02*
X90589100Y-83915600D01*
X90589100Y-83915600D02*
X90589100Y-87731600D01*
%TD*%
M02*
